<svg width="30" height="28" viewBox="0 0 30 28" fill="none" xmlns="http://www.w3.org/2000/svg">
<path d="M15 6.31944L9.22222 9.53674e-07V6.31944L12.8333 10.1111H17.1667L20.7778 6.31944V9.53674e-07L15 6.31944Z" fill="#A4C2DF"/>
<path d="M15 21.125L9.22222 27.4444V21.125L12.8333 17.3333H17.1667L20.7778 21.125V27.4444L15 21.125Z" fill="#A4C2DF"/>
<path d="M8.31944 13.7222L2 8.66666L8.31944 8.66666L12.1111 11.8264L12.1111 15.618L8.31944 18.7778L2 18.7778L8.31944 13.7222Z" fill="#A4C2DF"/>
<path d="M21.6806 13.7222L28 18.7778L21.6806 18.7778L17.8889 15.6181L17.8889 11.8264L21.6806 8.66666L28 8.66666L21.6806 13.7222Z" fill="#A4C2DF"/>
</svg>
